<?xml version="1.0" encoding="utf-8"?>
<!-- Generator: Adobe Illustrator 25.0.1, SVG Export Plug-In . SVG Version: 6.00 Build 0)  -->
<svg version="1.1" id="Capa_1" xmlns="http://www.w3.org/2000/svg" xmlns:xlink="http://www.w3.org/1999/xlink" x="0px" y="0px"
	 viewBox="0 0 496 496" style="enable-background:new 0 0 496 496;" xml:space="preserve">
<style type="text/css">
	.st0{fill:#672CE7;}
	.st1{fill:#3744CC;}
	.st2{fill:#3762CC;}
	.st3{fill:#A4C9FF;}
	.st4{fill:#BEBEBE;}
	.st5{font-family:'CooperBlack';}
	.st6{font-size:28.7519px;}
</style>
<path class="st0" d="M411.6,173.5v266.2c0,4,3.2,7.2,7.2,7.2c4,0,7.2-3.2,7.2-7.2V173.5L411.6,173.5L411.6,173.5z"/>
<path class="st1" d="M418.8,450.9c-6.2,0-11.2-5-11.2-11.2V173.5c0-2.2,1.8-4,4-4h14.5c2.2,0,4,1.8,4,4v266.2
	C430.1,445.9,425,450.9,418.8,450.9z M415.6,177.5v262.2c0,1.8,1.4,3.2,3.2,3.2c1.8,0,3.2-1.4,3.2-3.2V177.5H415.6z"/>
<path d="M429.6,181.5h-21.7c-2.8,0-5.1-2.3-5.1-5.1V167h31.8v9.4C434.7,179.2,432.4,181.5,429.6,181.5z"/>
<path class="st0" d="M461.7,167h-86c-5.6,0-10.2-4.6-10.2-10.2v-1.3c0-1.4,1.1-2.5,2.5-2.5h101.2c1.4,0,2.5,1.1,2.5,2.5v1.3
	C471.9,162.5,467.3,167,461.7,167z"/>
<path d="M411.5,113.6H426c2.4,0,4.3,1.9,4.3,4.3v10.2h-23.1v-10.2C407.2,115.6,409.1,113.6,411.5,113.6z"/>
<path class="st0" d="M375.8,128.1h86c5.6,0,10.2,4.6,10.2,10.2v1.3c0,1.4-1.1,2.5-2.5,2.5H368.1c-1.4,0-2.5-1.1-2.5-2.5v-1.3
	C365.6,132.7,370.1,128.1,375.8,128.1z"/>
<path class="st1" d="M429.6,185.5h-21.7c-5,0-9.1-4.1-9.1-9.1V167c0-2.2,1.8-4,4-4h31.8c2.2,0,4,1.8,4,4v9.4
	C438.7,181.4,434.6,185.5,429.6,185.5z M406.8,171v5.4c0,0.6,0.5,1.1,1.1,1.1h21.7c0.6,0,1.1-0.5,1.1-1.1V171H406.8z"/>
<path class="st1" d="M461.7,171h-86c-7.8,0-14.2-6.4-14.2-14.2v-1.3c0-3.6,2.9-6.5,6.5-6.5h101.2c3.6,0,6.5,2.9,6.5,6.5v1.3
	C475.9,164.7,469.5,171,461.7,171z M369.6,157c0.1,3.3,2.8,6,6.2,6h86c3.3,0,6.1-2.7,6.2-6H369.6z"/>
<path class="st1" d="M430.3,132.1h-23.1c-2.2,0-4-1.8-4-4v-10.2c0-4.6,3.7-8.3,8.3-8.3H426c4.6,0,8.3,3.7,8.3,8.3v10.2
	C434.3,130.3,432.5,132.1,430.3,132.1z M411.2,124.1h15.1v-6.2c0-0.2-0.1-0.3-0.3-0.3h-14.5c-0.2,0-0.3,0.1-0.3,0.3V124.1z"/>
<path class="st1" d="M469.4,146.1H368.1c-3.6,0-6.5-2.9-6.5-6.5v-1.3c0-7.8,6.4-14.2,14.2-14.2h86c7.8,0,14.2,6.4,14.2,14.2v1.3
	C475.9,143.2,473,146.1,469.4,146.1z M369.6,138.1h98.3c-0.1-3.3-2.8-6-6.2-6h-86C372.4,132.1,369.7,134.8,369.6,138.1z"/>
<path class="st0" d="M170.7,173.5v266.2c0,4,3.2,7.2,7.2,7.2c4,0,7.2-3.2,7.2-7.2V173.5L170.7,173.5L170.7,173.5z"/>
<path class="st1" d="M178,450.9c-6.2,0-11.2-5-11.2-11.2V173.5c0-2.2,1.8-4,4-4h14.5c2.2,0,4,1.8,4,4v266.2
	C189.2,445.9,184.2,450.9,178,450.9z M174.7,177.5v262.2c0,1.8,1.5,3.2,3.2,3.2s3.2-1.4,3.2-3.2V177.5H174.7z"/>
<path d="M263,275.5h0.7V215H162.1v60.5H263z"/>
<path d="M333,215.7h101.6v60.5H333V215.7z"/>
<path class="st1" d="M434.6,280.3H333c-2.2,0-4-1.8-4-4v-60.5c0-2.2,1.8-4,4-4h101.6c2.2,0,4,1.8,4,4v60.5
	C438.6,278.5,436.8,280.3,434.6,280.3z M337,272.3h93.6v-52.5H337V272.3z"/>
<path class="st0" d="M294.1,424H146.7c-3.8,0-6.9-3.1-6.9-6.9c0-3.8,3.1-6.9,6.9-6.9h147.4c3.8,0,6.9,3.1,6.9,6.9
	C301,420.9,297.9,424,294.1,424z"/>
<path class="st1" d="M294.1,428H146.7c-6,0-10.9-4.9-10.9-10.9s4.9-10.9,10.9-10.9h147.4c6,0,10.9,4.9,10.9,10.9
	C305,423.1,300.1,428,294.1,428z M146.7,414.2c-1.6,0-2.9,1.3-2.9,2.9c0,1.6,1.3,2.9,2.9,2.9h147.4c1.6,0,2.9-1.3,2.9-2.9
	c0-1.6-1.3-2.9-2.9-2.9H146.7z"/>
<path d="M146.2,300.3h148.4v109.9H146.2V300.3z"/>
<path class="st1" d="M294.6,414.2H146.2c-2.2,0-4-1.8-4-4V300.3c0-2.2,1.8-4,4-4h148.4c2.2,0,4,1.8,4,4v109.9
	C298.6,412.4,296.8,414.2,294.6,414.2z M150.2,406.2h140.4V304.3H150.2V406.2z"/>
<path d="M322.8,310.3h127.9v44.1H322.8V310.3z"/>
<path class="st1" d="M450.7,358.4H322.8c-2.2,0-4-1.8-4-4v-44.1c0-2.2,1.8-4,4-4h127.9c2.2,0,4,1.8,4,4v44.1
	C454.7,356.6,452.9,358.4,450.7,358.4z M326.8,350.4h119.9v-36.1H326.8V350.4z"/>
<path class="st0" d="M235.7,411l-6.8,25.5c-1.2,4.4,1.4,8.9,5.8,10.1c4.4,1.2,8.9-1.4,10.1-5.8l4.9-18.2
	C244.7,419.2,240,415.4,235.7,411z"/>
<path class="st0" d="M363.3,411c-4.2,4.3-8.9,8.2-14,11.6l4.9,18.2c1.2,4.4,5.7,7,10.1,5.8c4.4-1.2,7-5.7,5.8-10.1L363.3,411z"/>
<path class="st1" d="M236.9,450.9c-1.1,0-2.1-0.1-3.2-0.4c-3.2-0.8-5.8-2.9-7.4-5.7c-1.6-2.8-2.1-6.1-1.2-9.3l6.8-25.5
	c0.4-1.4,1.5-2.5,2.8-2.8c1.4-0.4,2.9,0,3.9,1.1c4.1,4.1,8.6,7.8,13.4,11c1.4,1,2.1,2.7,1.6,4.4l-4.9,18.2c-0.8,3.2-2.9,5.8-5.7,7.4
	C241.1,450.3,239,450.9,236.9,450.9z M237.9,418.5l-5.1,19c-0.3,1.1-0.1,2.2,0.4,3.2s1.5,1.7,2.6,2c1.1,0.3,2.2,0.1,3.2-0.4
	c1-0.6,1.7-1.5,2-2.6l4.1-15.4C242.6,422.5,240.2,420.6,237.9,418.5z"/>
<path class="st1" d="M362.2,450.9c-5.4,0-10.4-3.6-11.8-9.1l-4.9-18.2c-0.4-1.7,0.2-3.4,1.6-4.4c4.8-3.2,9.3-6.9,13.4-11
	c1-1,2.5-1.4,3.9-1.1c1.4,0.4,2.5,1.4,2.8,2.8l6.8,25.5c0.8,3.2,0.4,6.5-1.2,9.3c-1.6,2.8-4.3,4.9-7.4,5.7
	C364.3,450.8,363.2,450.9,362.2,450.9z M353.9,424.3l4.1,15.4c0.6,2.3,2.9,3.6,5.2,3c1.1-0.3,2-1,2.6-2s0.7-2.1,0.4-3.2l-5.1-19
	C358.9,420.6,356.4,422.5,353.9,424.3z"/>
<path class="st1" d="M263.7,279.5H162.1c-2.2,0-4-1.8-4-4V215c0-2.2,1.8-4,4-4h101.6c2.2,0,4,1.8,4,4v60.5
	C267.7,277.7,265.9,279.5,263.7,279.5z M166.1,271.5h93.6V219h-93.6V271.5z"/>
<path class="st0" d="M251.4,234.5c0-3.8,3.1-6.9,6.9-6.9h82.5c3.8,0,6.9,3.1,6.9,6.9c0,3.8-3.1,6.9-6.9,6.9h-82.5
	C254.5,241.3,251.4,238.3,251.4,234.5z"/>
<path class="st0" d="M299.5,262.4c2.8,0,5.5,0.1,8.2,0.4v-21.4h-16.5v21.4C294,262.5,296.8,262.4,299.5,262.4z"/>
<path class="st1" d="M340.8,245.3h-82.5c-6,0-10.9-4.9-10.9-10.9s4.9-10.9,10.9-10.9h82.5c6,0,10.9,4.9,10.9,10.9
	S346.8,245.3,340.8,245.3z M258.3,231.6c-1.6,0-2.9,1.3-2.9,2.9c0,1.6,1.3,2.9,2.9,2.9h82.5c1.6,0,2.9-1.3,2.9-2.9
	c0-1.6-1.3-2.9-2.9-2.9H258.3z"/>
<path class="st1" d="M307.8,266.8c-0.1,0-0.2,0-0.4,0c-5.5-0.5-10.2-0.5-15.8,0c-1.1,0.1-2.2-0.3-3.1-1c-0.8-0.8-1.3-1.8-1.3-3
	v-21.4c0-2.2,1.8-4,4-4h16.5c2.2,0,4,1.8,4,4v21.4c0,1.1-0.5,2.2-1.3,3C309.7,266.4,308.8,266.8,307.8,266.8z M299.5,258.4
	c1.4,0,2.8,0,4.2,0.1v-13.2h-8.5v13.2C296.7,258.4,298.1,258.4,299.5,258.4z"/>
<path class="st0" d="M433.2,285.5h-98.8c-3.4,0-6.2-2.8-6.2-6.2v-1.6c0-3.4,2.8-6.2,6.2-6.2h98.8c3.4,0,6.2,2.8,6.2,6.2v1.6
	C439.4,282.7,436.6,285.5,433.2,285.5z"/>
<path class="st1" d="M433.2,289.5h-98.8c-5.6,0-10.2-4.6-10.2-10.2v-1.6c0-5.6,4.6-10.2,10.2-10.2h98.8c5.6,0,10.2,4.6,10.2,10.2
	v1.6C443.4,284.9,438.9,289.5,433.2,289.5z M334.4,275.5c-1.2,0-2.2,1-2.2,2.2v1.6c0,1.2,1,2.2,2.2,2.2h98.8c1.2,0,2.2-1,2.2-2.2
	v-1.6c0-1.2-1-2.2-2.2-2.2H334.4z"/>
<path class="st0" d="M261.6,284.8h-98.8c-3.4,0-6.2-2.8-6.2-6.2V277c0-3.4,2.8-6.2,6.2-6.2h98.8c3.4,0,6.2,2.8,6.2,6.2v1.6
	C267.8,282,265.1,284.8,261.6,284.8z"/>
<path class="st1" d="M261.6,288.8h-98.8c-5.6,0-10.2-4.6-10.2-10.2V277c0-5.6,4.6-10.2,10.2-10.2h98.8c5.6,0,10.2,4.6,10.2,10.2v1.6
	C271.8,284.2,267.3,288.8,261.6,288.8z M162.8,274.8c-1.2,0-2.2,1-2.2,2.2v1.6c0,1.2,1,2.2,2.2,2.2h98.8c1.2,0,2.2-1,2.2-2.2V277
	c0-1.2-1-2.2-2.2-2.2H162.8z"/>
<path class="st0" d="M294.1,310.1H146.7c-3.8,0-6.9-3.1-6.9-6.9c0-3.8,3.1-6.9,6.9-6.9h147.4c3.8,0,6.9,3.1,6.9,6.9
	C301,307,297.9,310.1,294.1,310.1z"/>
<path class="st1" d="M294.1,314.1H146.7c-6,0-10.9-4.9-10.9-10.9s4.9-10.9,10.9-10.9h147.4c6,0,10.9,4.9,10.9,10.9
	S300.1,314.1,294.1,314.1z M146.7,300.3c-1.6,0-2.9,1.3-2.9,2.9c0,1.6,1.3,2.9,2.9,2.9h147.4c1.6,0,2.9-1.3,2.9-2.9
	c0-1.6-1.3-2.9-2.9-2.9H146.7z"/>
<path class="st0" d="M450.6,366.9H322.9c-3.4,0-6.2-2.8-6.2-6.2V359c0-3.4,2.8-6.2,6.2-6.2h127.8c3.4,0,6.2,2.8,6.2,6.2v1.7
	C456.8,364.1,454,366.9,450.6,366.9z"/>
<path class="st1" d="M450.6,370.9H322.9c-5.6,0-10.2-4.6-10.2-10.2V359c0-5.6,4.6-10.2,10.2-10.2h127.8c5.6,0,10.2,4.6,10.2,10.2
	v1.7C460.8,366.3,456.2,370.9,450.6,370.9z M322.9,356.9c-1.2,0-2.2,1-2.2,2.2v1.7c0,1.2,1,2.2,2.2,2.2h127.8c1.2,0,2.2-1,2.2-2.2
	V359c0-1.2-1-2.2-2.2-2.2H322.9z"/>
<path class="st0" d="M450.5,311.8H322.8c-3.4,0-6.2-2.8-6.2-6.2V304c0-3.4,2.8-6.2,6.2-6.2h127.8c3.4,0,6.2,2.8,6.2,6.2v1.7
	C456.7,309,454,311.8,450.5,311.8z"/>
<path class="st1" d="M450.5,315.8H322.8c-5.6,0-10.2-4.6-10.2-10.2V304c0-5.6,4.6-10.2,10.2-10.2h127.8c5.6,0,10.2,4.6,10.2,10.2
	v1.7C460.7,311.2,456.2,315.8,450.5,315.8z M322.8,301.8c-1.2,0-2.2,1-2.2,2.2v1.7c0,1.2,1,2.2,2.2,2.2h127.8c1.2,0,2.2-1,2.2-2.2
	V304c0-1.2-1-2.2-2.2-2.2H322.8z"/>
<path d="M389.2,348.1c0,49.5-40.1,89.7-89.7,89.7s-89.7-40.1-89.7-89.7s40.1-89.7,89.7-89.7S389.2,298.5,389.2,348.1z"/>
<path class="st1" d="M299.5,441.7c-51.6,0-93.7-42-93.7-93.7c0-51.6,42-93.7,93.7-93.7c51.7,0,93.7,42,93.7,93.7
	C393.2,399.7,351.2,441.7,299.5,441.7z M299.5,262.4c-47.2,0-85.7,38.4-85.7,85.7c0,47.2,38.4,85.7,85.7,85.7
	c47.2,0,85.7-38.4,85.7-85.7C385.2,300.8,346.8,262.4,299.5,262.4z"/>
<path class="st0" d="M433.2,217.2h-98.8c-3.4,0-6.2-2.8-6.2-6.2v-1.6c0-3.4,2.8-6.2,6.2-6.2h98.8c3.4,0,6.2,2.8,6.2,6.2v1.6
	C439.4,214.5,436.6,217.2,433.2,217.2z"/>
<path class="st1" d="M433.2,221.2h-98.8c-5.6,0-10.2-4.6-10.2-10.2v-1.6c0-5.6,4.6-10.2,10.2-10.2h98.8c5.6,0,10.2,4.6,10.2,10.2
	v1.6C443.4,216.7,438.8,221.2,433.2,221.2z M334.3,207.2c-1.2,0-2.2,1-2.2,2.2v1.6c0,1.2,1,2.2,2.2,2.2h98.8c1.2,0,2.2-1,2.2-2.2
	v-1.6c0-1.2-1-2.2-2.2-2.2H334.3z"/>
<path class="st0" d="M262.3,216.5h-98.8c-3.4,0-6.2-2.8-6.2-6.2v-1.6c0-3.4,2.8-6.2,6.2-6.2h98.8c3.4,0,6.2,2.8,6.2,6.2v1.6
	C268.5,213.7,265.7,216.5,262.3,216.5z"/>
<path class="st1" d="M262.3,220.5h-98.8c-5.6,0-10.2-4.6-10.2-10.2v-1.6c0-5.6,4.6-10.2,10.2-10.2h98.8c5.6,0,10.2,4.6,10.2,10.2
	v1.6C272.5,215.9,267.9,220.5,262.3,220.5z M163.4,206.5c-1.2,0-2.2,1-2.2,2.2v1.6c0,1.2,1,2.2,2.2,2.2h98.8c1.2,0,2.2-1,2.2-2.2
	v-1.6c0-1.2-1-2.2-2.2-2.2H163.4z"/>
<path d="M189.2,181.5h-22.7c-2.5,0-4.6-2-4.6-4.6v-7.3h31.8v7.3C193.8,179.4,191.7,181.5,189.2,181.5z"/>
<path class="st0" d="M220.9,167h-86c-5.6,0-10.2-4.6-10.2-10.2v-1.3c0-1.4,1.1-2.5,2.5-2.5h101.2c1.4,0,2.5,1.1,2.5,2.5v1.3
	C231,162.5,226.5,167,220.9,167z"/>
<path d="M168.7,113.6h14.5c2.4,0,4.3,1.9,4.3,4.3v10.2h-23.1v-10.2C164.4,115.6,166.4,113.6,168.7,113.6z"/>
<path class="st0" d="M133,128.1h86c5.6,0,10.2,4.6,10.2,10.2v1.3c0,1.4-1.1,2.5-2.5,2.5H125.4c-1.4,0-2.5-1.1-2.5-2.5v-1.3
	C122.8,132.7,127.4,128.1,133,128.1z"/>
<path class="st1" d="M188.7,185.5H167c-5,0-9.1-4.1-9.1-9.1V167c0-2.2,1.8-4,4-4h31.8c2.2,0,4,1.8,4,4v9.4
	C197.8,181.4,193.7,185.5,188.7,185.5z M166,171v5.4c0,0.6,0.5,1.1,1.1,1.1h21.7c0.6,0,1.1-0.5,1.1-1.1V171H166z"/>
<path class="st1" d="M220.9,171h-86c-7.8,0-14.2-6.4-14.2-14.2v-1.3c0-3.6,2.9-6.5,6.5-6.5h101.2c3.6,0,6.5,2.9,6.5,6.5v1.3
	C235,164.7,228.7,171,220.9,171z M128.7,157c0.1,3.3,2.8,6,6.2,6h86c3.3,0,6.1-2.7,6.2-6H128.7z"/>
<path class="st1" d="M187.6,132.1h-23.1c-2.2,0-4-1.8-4-4v-10.2c0-4.6,3.7-8.3,8.3-8.3h14.5c4.6,0,8.3,3.7,8.3,8.3v10.2
	C191.6,130.3,189.8,132.1,187.6,132.1z M168.4,124.1h15.1v-6.2c0-0.2-0.1-0.3-0.3-0.3h-14.5c-0.2,0-0.3,0.1-0.3,0.3V124.1z"/>
<path class="st1" d="M226.6,146.1H125.4c-3.6,0-6.5-2.9-6.5-6.5v-1.3c0-7.8,6.4-14.2,14.2-14.2h86c7.8,0,14.2,6.4,14.2,14.2v1.3
	C233.2,143.2,230.2,146.1,226.6,146.1z M126.8,138.1h98.3c-0.1-3.3-2.8-6-6.2-6h-86C129.7,132.1,126.9,134.8,126.8,138.1z"/>
<path d="M147.9,361.4c-3.8-4.1-5.9-9.3-5.9-14.6v-10.4l5-22.6c0.6-2.6-0.2-5.3-2.3-6.9c-2.4-1.9-5.7-1.9-8-0.2l-21.1,15h-8.3V313
	H90.9v0.1l-11.4-1.2c-1.7-0.2-3.3-1.1-4.2-2.6l-22.7-35.1c-2.2-2.6-5.7-3.2-8.4-1.3c-2.1,1.4-3.3,3.9-3.3,6.6l8,60.1v7.2
	c0,5.3-2.1,10.4-5.9,14.6c-8,8.7-12.8,19.5-12.8,31.2c0,29,29.2,52.4,65.3,52.4c36.1,0,65.3-23.5,65.3-52.4
	C160.8,380.9,156,370.1,147.9,361.4z"/>
<path class="st2" d="M95.4,449c-38.2,0-69.3-25.3-69.3-56.4c0-12.3,4.8-24.1,13.9-33.9c3.1-3.3,4.8-7.6,4.8-11.9v-7l-8-59.8
	c0-0.2,0-0.4,0-0.5c0-4.1,1.9-7.8,5.1-10c4.5-3,10.2-2.1,13.8,2.1c0.1,0.1,0.2,0.2,0.3,0.4l22.7,35.1c0.3,0.4,0.7,0.7,1.2,0.8
	l10.7,1.1c0.1,0,0.2,0,0.3,0h16.6c2.2,0,4,1.8,4,4v4.7h3l20-14.3c3.9-2.8,9.1-2.7,12.8,0.3c3.2,2.5,4.6,6.8,3.7,11l-4.9,22.2v10
	c0,4.3,1.7,8.5,4.8,11.8c9.1,9.8,13.9,21.5,13.9,33.9C164.8,423.7,133.7,449,95.4,449z M44.8,279.3l8,59.7c0,0.2,0,0.4,0,0.5v7.2
	c0,6.3-2.5,12.4-6.9,17.3c-7.7,8.3-11.8,18.2-11.8,28.5c0,26.7,27.5,48.4,61.3,48.4s61.3-21.7,61.3-48.4c0-10.3-4.1-20.1-11.8-28.5
	c-4.5-4.8-6.9-11-6.9-17.3v-10.4c0-0.3,0-0.6,0.1-0.9l5-22.6c0.3-1.1-0.1-2.3-0.9-2.9c-1-0.8-2.3-0.8-3.2-0.1l-21.1,15
	c-0.7,0.5-1.5,0.7-2.3,0.7h-8.3c-2.2,0-4-1.8-4-4V317H91.6c-0.4,0.1-0.7,0.1-1.1,0l-11.4-1.2c-2.9-0.3-5.5-1.9-7.1-4.4l-22.6-34.9
	c-0.9-0.9-2-1.1-3-0.4C45.4,276.8,44.8,278,44.8,279.3z"/>
<path class="st0" d="M99.9,188.8H84v144.4c0,1.8,1.5,3.3,3.3,3.3h17.4c1.8,0,3.3-1.5,3.3-3.3V188.8H99.9z"/>
<path class="st3" d="M84,207.5h23.9v9.5H84V207.5z"/>
<path d="M84,240.9h23.9v9.5H84V240.9z"/>
<path d="M84,274.4h23.9v9.5H84V274.4z"/>
<path d="M84,308.1h23.9v9.5H84V308.1z"/>
<path class="st0" d="M116.1,427.9H75.6c-1.3,0-2.4-1.1-2.4-2.4v-7.8c0-5.6,4.5-10.1,10.1-10.1h25.1c5.6,0,10.1,4.5,10.1,10.1v7.8
	C118.5,426.8,117.5,427.9,116.1,427.9z"/>
<path class="st0" d="M118.1,393.5H74c-2.3,0-4.2-1.9-4.2-4.2v-3.6c0-2.3,1.9-4.2,4.2-4.2h44.2c2.3,0,4.2,1.9,4.2,4.2v3.6
	C122.3,391.7,120.4,393.5,118.1,393.5z"/>
<path class="st0" d="M112.7,369.7H79.4c-2.3,0-4.2-1.9-4.2-4.2v-3.6c0-2.3,1.9-4.2,4.2-4.2h33.2c2.3,0,4.2,1.9,4.2,4.2v3.6
	C116.8,367.8,115,369.7,112.7,369.7z"/>
<path class="st2" d="M104.6,340.4H87.2c-4,0-7.3-3.3-7.3-7.3V189.5c0-2.2,1.8-4,4-4h22.8c1.2-0.3,2.5,0,3.5,0.7
	c1,0.8,1.6,1.9,1.6,3.2v143.8C111.9,337.2,108.6,340.4,104.6,340.4z M88,332.4h15.9V193.5H88V332.4z"/>
<path d="M119.4,194.3l-10-29.4c-0.2-0.6-0.3-1.1-0.3-1.7v-14.5c0-2.4-1.9-4.3-4.3-4.3H89.6c-2.1,0-3.9,1.5-4.2,3.6L76,208.1
	c-0.6,3.9,2.4,7.4,6.4,7.4h24.4c1.4,0,2.8-0.7,3.6-1.9l8.1-12.3C119.9,199.3,120.2,196.7,119.4,194.3z"/>
<path class="st2" d="M106.8,219.6H82.4c-3.1,0-5.9-1.3-7.9-3.7s-2.9-5.4-2.4-8.4l9.4-60.1c0.6-4.1,4.1-7,8.2-7h15.2
	c4.6,0,8.3,3.7,8.3,8.3v14.5c0,0.2,0,0.3,0.1,0.4l10,29.4c1.2,3.5,0.7,7.4-1.4,10.5l-8.1,12.3C112.2,218.2,109.6,219.6,106.8,219.6z
	 M89.6,148.4c-0.1,0-0.3,0.1-0.3,0.3L80,208.7c-0.2,1,0.3,1.6,0.6,2c0.3,0.3,0.9,0.9,1.9,0.9h24.4c0.1,0,0.2,0,0.2-0.1l8.1-12.3
	c0.7-1,0.9-2.4,0.5-3.5h0l-10-29.4c-0.3-1-0.5-2-0.5-3v-14.5c0-0.2-0.1-0.3-0.3-0.3H89.6z"/>
<path class="st4" d="M72.4,168.8c-0.6-1.1-1-2.6-1-4.2c0-3.3,1.5-6,3.3-6h16.1c1.8,0,3.3,2.7,3.3,6c0,3.3-1.5,6-3.3,6H74.7
	C73.8,170.5,72.9,169.9,72.4,168.8z"/>
<path class="st4" d="M68.1,195.2c-0.6-1.1-1-2.6-1-4.2c0-3.3,1.5-6,3.3-6h16.1c1.8,0,3.3,2.7,3.3,6c0,3.3-1.5,6-3.3,6H70.4
	C69.5,197,68.6,196.3,68.1,195.2z"/>
<path class="st2" d="M90.8,174.5H74.7c-2.4,0-4.5-1.4-5.8-3.8c0,0,0,0,0,0c-0.9-1.7-1.4-3.9-1.4-6.1c0-5.7,3.1-10,7.3-10h16.1
	c4.1,0,7.3,4.3,7.3,10C98,170.2,94.9,174.5,90.8,174.5z M75.7,166.5h14c0.2-0.4,0.3-1.1,0.3-2s-0.2-1.6-0.3-2h-14
	c-0.2,0.4-0.3,1.1-0.3,2C75.4,165.4,75.5,166.1,75.7,166.5z"/>
<path class="st2" d="M86.5,201H70.4c-2.4,0-4.5-1.4-5.8-3.9c-0.9-1.7-1.4-3.9-1.4-6.1c0-3.3,1-6.3,2.9-8.1c1.2-1.2,2.8-1.9,4.4-1.9
	h16.1c4.1,0,7.3,4.3,7.3,10C93.7,196.7,90.6,201,86.5,201z M71.7,193.4L71.7,193.4L71.7,193.4z M71.4,193h14c0.2-0.4,0.3-1.1,0.3-2
	s-0.2-1.6-0.3-2h-14c-0.2,0.4-0.3,1.1-0.3,2C71.1,191.8,71.3,192.5,71.4,193z M70.4,189L70.4,189L70.4,189z"/>
<path class="st0" d="M484.4,492H11.6c-3.1,0-5.6-2.5-5.6-5.6v-34.3c0-3.1,2.5-5.6,5.6-5.6h472.8c3.1,0,5.6,2.5,5.6,5.6v34.3
	C490,489.5,487.5,492,484.4,492z"/>
<path d="M484.4,496H11.6c-5.3,0-9.6-4.3-9.6-9.6v-34.3c0-5.3,4.3-9.6,9.6-9.6h472.8c5.3,0,9.6,4.3,9.6,9.6v34.3
	C494,491.7,489.7,496,484.4,496z M11.6,450.5c-0.9,0-1.6,0.7-1.6,1.6v34.3c0,0.9,0.7,1.6,1.6,1.6h472.8c0.9,0,1.6-0.7,1.6-1.6v-34.3
	c0-0.9-0.7-1.6-1.6-1.6H11.6z"/>
<g>
	<path d="M87.4,64.1L29.7,17.3h-8.2v6.7l57.7,46.8h8.2V64.1z"/>
	<path d="M107.1,70.7l57.7-46.8v-6.7h-8.2L98.9,64.1v6.7H107.1z"/>
	<path d="M176.3,17.3v6.7l57.7,46.8h8.2v-6.7l-57.7-46.8H176.3z"/>
	<path d="M261.9,70.7l57.7-46.8v-6.7h-8.2l-57.7,46.8v6.7H261.9z"/>
	<path d="M331.2,17.3v6.7l57.7,46.8h8.2v-6.7l-57.7-46.8H331.2z"/>
	<path d="M474.5,17.3h-8.2l-57.7,46.8v6.7h8.2l57.7-46.8V17.3z"/>
	<path d="M472.5,4h-449C13.8,4,6,10.7,6,18.9v50.2C6,77.3,13.8,84,23.5,84h449c9.6,0,17.5-6.7,17.5-14.9V18.9
		C490,10.7,482.2,4,472.5,4z M470.5,21.3v45.5h-57.9V21.3H470.5z M393.1,21.3v45.5h-57.9V21.3H393.1z M315.7,21.3v45.5h-57.9V21.3
		H315.7z M238.3,21.3v45.5h-57.9V21.3H238.3z M160.8,21.3v45.5h-57.9V21.3H160.8z M83.4,21.3v45.5H25.5V21.3H83.4z"/>
</g>
<path class="st0" d="M472.5,88h-449C11.6,88,2,79.5,2,69.1V18.9C2,8.5,11.6,0,23.5,0h449C484.4,0,494,8.5,494,18.9v50.2
	C494,79.5,484.4,88,472.5,88z M23.5,8C16,8,10,12.9,10,18.9v50.2c0,6,6,10.9,13.5,10.9h449c7.4,0,13.5-4.9,13.5-10.9V18.9
	c0-6-6-10.9-13.5-10.9H23.5z"/>
<text transform="matrix(0.7458 -7.193621e-02 9.600795e-02 0.9954 232.6316 363.7113)" class="st0 st5 st6">Hullabalooza</text>
</svg>
